<svg width="64" height="64" viewBox="0 0 64 64" xmlns="http://www.w3.org/2000/svg">
  <rect width="64" height="64" rx="14" fill="#A5603F" />
  <path
    d="M20 32c0-5 3.4-8.5 7.5-8.5 3.6 0 5.6 2.4 4.5 6.2-1.1 3.8-4.3 6.6-4.3 6.6s-3.2 2.8-4.3 6.6c-1.1 3.8.9 6.2 4.5 6.2"
    fill="none"
    stroke="#E9DCCF"
    stroke-width="3.2"
    stroke-linecap="round"
    transform="rotate(90 32 32)"
  />
  <path
    d="M32 24c2.6-4.2 6.4-5.6 9.8-3.6 3.4 2 4 6.4 1.4 10.6-2.6 4.2-11.2 12.6-11.2 12.6S23.4 35.2 20.8 31c-2.6-4.2-2-8.6 1.4-10.6 3.4-2 7.2-.6 9.8 3.6Z"
    fill="#E9DCCF"
    opacity="0.95"
  />
</svg>
